<mxfile host="Electron" modified="2023-11-17T13:44:12.705Z" agent="Mozilla/5.0 (Windows NT 10.0; Win64; x64) AppleWebKit/537.36 (KHTML, like Gecko) draw.io/22.0.3 Chrome/114.0.5735.289 Electron/25.8.4 Safari/537.36" etag="6As2atH_2CHdBckF9vUN" version="22.0.3" type="device">
  <diagram name="Seite-1" id="1_SflvjrXZdWEE-OU6Gd">
    <mxGraphModel dx="366" dy="226" grid="1" gridSize="10" guides="1" tooltips="1" connect="1" arrows="1" fold="1" page="1" pageScale="1" pageWidth="827" pageHeight="1169" math="0" shadow="0">
      <root>
        <mxCell id="0" />
        <mxCell id="1" parent="0" />
        <mxCell id="b9P_MkYqucibZD2Cq7RL-1" value="PAP&amp;nbsp;Aufgabe_01_05_02_v01" style="text;html=1;align=center;verticalAlign=middle;resizable=0;points=[];autosize=1;strokeColor=none;fillColor=none;" vertex="1" parent="1">
          <mxGeometry x="10" y="40" width="180" height="30" as="geometry" />
        </mxCell>
        <mxCell id="b9P_MkYqucibZD2Cq7RL-33" style="edgeStyle=orthogonalEdgeStyle;rounded=0;orthogonalLoop=1;jettySize=auto;html=1;" edge="1" parent="1" source="b9P_MkYqucibZD2Cq7RL-2" target="b9P_MkYqucibZD2Cq7RL-9">
          <mxGeometry relative="1" as="geometry" />
        </mxCell>
        <mxCell id="b9P_MkYqucibZD2Cq7RL-2" value="Start" style="strokeWidth=1;html=1;shape=mxgraph.flowchart.terminator;whiteSpace=wrap;" vertex="1" parent="1">
          <mxGeometry x="130" y="110" width="80" height="40" as="geometry" />
        </mxCell>
        <mxCell id="b9P_MkYqucibZD2Cq7RL-4" value="Ende" style="strokeWidth=1;html=1;shape=mxgraph.flowchart.terminator;whiteSpace=wrap;" vertex="1" parent="1">
          <mxGeometry x="130" y="1080" width="80" height="40" as="geometry" />
        </mxCell>
        <mxCell id="b9P_MkYqucibZD2Cq7RL-34" style="edgeStyle=orthogonalEdgeStyle;rounded=0;orthogonalLoop=1;jettySize=auto;html=1;" edge="1" parent="1" source="b9P_MkYqucibZD2Cq7RL-9" target="b9P_MkYqucibZD2Cq7RL-20">
          <mxGeometry relative="1" as="geometry" />
        </mxCell>
        <mxCell id="b9P_MkYqucibZD2Cq7RL-9" value="char c" style="rounded=0;whiteSpace=wrap;html=1;" vertex="1" parent="1">
          <mxGeometry x="110" y="170" width="120" height="30" as="geometry" />
        </mxCell>
        <mxCell id="b9P_MkYqucibZD2Cq7RL-10" value="int i" style="rounded=0;whiteSpace=wrap;html=1;" vertex="1" parent="1">
          <mxGeometry x="110" y="220" width="120" height="30" as="geometry" />
        </mxCell>
        <mxCell id="b9P_MkYqucibZD2Cq7RL-11" value="ausgabe(&quot;Geben Sie bitte ein Zeichen ein: &quot;)" style="shape=parallelogram;perimeter=parallelogramPerimeter;whiteSpace=wrap;html=1;fixedSize=1;" vertex="1" parent="1">
          <mxGeometry x="77.5" y="270" width="185" height="30" as="geometry" />
        </mxCell>
        <mxCell id="b9P_MkYqucibZD2Cq7RL-13" value="c = eingabe()" style="shape=parallelogram;perimeter=parallelogramPerimeter;whiteSpace=wrap;html=1;fixedSize=1;" vertex="1" parent="1">
          <mxGeometry x="110" y="320" width="120" height="30" as="geometry" />
        </mxCell>
        <mxCell id="b9P_MkYqucibZD2Cq7RL-14" value="ausgabe(&quot;Geben Sie bitte eine positive ganze Zahl ein: &quot;)" style="shape=parallelogram;perimeter=parallelogramPerimeter;whiteSpace=wrap;html=1;fixedSize=1;" vertex="1" parent="1">
          <mxGeometry x="77.5" y="370" width="185" height="30" as="geometry" />
        </mxCell>
        <mxCell id="b9P_MkYqucibZD2Cq7RL-15" value="i = eingabe()" style="shape=parallelogram;perimeter=parallelogramPerimeter;whiteSpace=wrap;html=1;fixedSize=1;" vertex="1" parent="1">
          <mxGeometry x="110" y="420" width="120" height="30" as="geometry" />
        </mxCell>
        <mxCell id="b9P_MkYqucibZD2Cq7RL-37" style="edgeStyle=orthogonalEdgeStyle;rounded=0;orthogonalLoop=1;jettySize=auto;html=1;" edge="1" parent="1" source="b9P_MkYqucibZD2Cq7RL-16" target="b9P_MkYqucibZD2Cq7RL-17">
          <mxGeometry relative="1" as="geometry" />
        </mxCell>
        <mxCell id="b9P_MkYqucibZD2Cq7RL-16" value="ausgabe(&quot;Geben Sie bitte ein Zeichen ein: &quot;)" style="shape=parallelogram;perimeter=parallelogramPerimeter;whiteSpace=wrap;html=1;fixedSize=1;" vertex="1" parent="1">
          <mxGeometry x="77.5" y="270" width="185" height="30" as="geometry" />
        </mxCell>
        <mxCell id="b9P_MkYqucibZD2Cq7RL-38" style="edgeStyle=orthogonalEdgeStyle;rounded=0;orthogonalLoop=1;jettySize=auto;html=1;" edge="1" parent="1" source="b9P_MkYqucibZD2Cq7RL-17" target="b9P_MkYqucibZD2Cq7RL-18">
          <mxGeometry relative="1" as="geometry" />
        </mxCell>
        <mxCell id="b9P_MkYqucibZD2Cq7RL-17" value="c = eingabe()" style="shape=parallelogram;perimeter=parallelogramPerimeter;whiteSpace=wrap;html=1;fixedSize=1;" vertex="1" parent="1">
          <mxGeometry x="110" y="320" width="120" height="30" as="geometry" />
        </mxCell>
        <mxCell id="b9P_MkYqucibZD2Cq7RL-39" style="edgeStyle=orthogonalEdgeStyle;rounded=0;orthogonalLoop=1;jettySize=auto;html=1;" edge="1" parent="1" source="b9P_MkYqucibZD2Cq7RL-18" target="b9P_MkYqucibZD2Cq7RL-19">
          <mxGeometry relative="1" as="geometry" />
        </mxCell>
        <mxCell id="b9P_MkYqucibZD2Cq7RL-18" value="ausgabe(&quot;Geben Sie bitte eine positive ganze Zahl ein: &quot;)" style="shape=parallelogram;perimeter=parallelogramPerimeter;whiteSpace=wrap;html=1;fixedSize=1;" vertex="1" parent="1">
          <mxGeometry x="77.5" y="370" width="185" height="30" as="geometry" />
        </mxCell>
        <mxCell id="b9P_MkYqucibZD2Cq7RL-40" style="edgeStyle=orthogonalEdgeStyle;rounded=0;orthogonalLoop=1;jettySize=auto;html=1;" edge="1" parent="1" source="b9P_MkYqucibZD2Cq7RL-19" target="b9P_MkYqucibZD2Cq7RL-22">
          <mxGeometry relative="1" as="geometry" />
        </mxCell>
        <mxCell id="b9P_MkYqucibZD2Cq7RL-19" value="i = eingabe()" style="shape=parallelogram;perimeter=parallelogramPerimeter;whiteSpace=wrap;html=1;fixedSize=1;" vertex="1" parent="1">
          <mxGeometry x="110" y="420" width="120" height="30" as="geometry" />
        </mxCell>
        <mxCell id="b9P_MkYqucibZD2Cq7RL-51" style="edgeStyle=orthogonalEdgeStyle;rounded=0;orthogonalLoop=1;jettySize=auto;html=1;" edge="1" parent="1" source="b9P_MkYqucibZD2Cq7RL-20" target="b9P_MkYqucibZD2Cq7RL-16">
          <mxGeometry relative="1" as="geometry" />
        </mxCell>
        <mxCell id="b9P_MkYqucibZD2Cq7RL-20" value="int i, auswahl, start = 0" style="rounded=0;whiteSpace=wrap;html=1;" vertex="1" parent="1">
          <mxGeometry x="105" y="220" width="130" height="30" as="geometry" />
        </mxCell>
        <mxCell id="b9P_MkYqucibZD2Cq7RL-41" style="edgeStyle=orthogonalEdgeStyle;rounded=0;orthogonalLoop=1;jettySize=auto;html=1;" edge="1" parent="1" source="b9P_MkYqucibZD2Cq7RL-22" target="b9P_MkYqucibZD2Cq7RL-23">
          <mxGeometry relative="1" as="geometry" />
        </mxCell>
        <mxCell id="b9P_MkYqucibZD2Cq7RL-22" value="ausgabe(&quot;Drücken Sie 1, wenn Sie wollen, dass die Zeichen nebeneinander angezeigt würden und 2 - wenn übereinander: &quot;)" style="shape=parallelogram;perimeter=parallelogramPerimeter;whiteSpace=wrap;html=1;fixedSize=1;" vertex="1" parent="1">
          <mxGeometry x="77.5" y="470" width="185" height="60" as="geometry" />
        </mxCell>
        <mxCell id="b9P_MkYqucibZD2Cq7RL-42" style="edgeStyle=orthogonalEdgeStyle;rounded=0;orthogonalLoop=1;jettySize=auto;html=1;" edge="1" parent="1" source="b9P_MkYqucibZD2Cq7RL-23" target="b9P_MkYqucibZD2Cq7RL-24">
          <mxGeometry relative="1" as="geometry" />
        </mxCell>
        <mxCell id="b9P_MkYqucibZD2Cq7RL-23" value="auswahl = eingabe()" style="shape=parallelogram;perimeter=parallelogramPerimeter;whiteSpace=wrap;html=1;fixedSize=1;" vertex="1" parent="1">
          <mxGeometry x="110" y="550" width="120" height="30" as="geometry" />
        </mxCell>
        <mxCell id="b9P_MkYqucibZD2Cq7RL-43" style="edgeStyle=orthogonalEdgeStyle;rounded=0;orthogonalLoop=1;jettySize=auto;html=1;" edge="1" parent="1" source="b9P_MkYqucibZD2Cq7RL-24" target="b9P_MkYqucibZD2Cq7RL-25">
          <mxGeometry relative="1" as="geometry" />
        </mxCell>
        <mxCell id="b9P_MkYqucibZD2Cq7RL-52" value="wahr" style="edgeLabel;html=1;align=center;verticalAlign=middle;resizable=0;points=[];" vertex="1" connectable="0" parent="b9P_MkYqucibZD2Cq7RL-43">
          <mxGeometry x="0.5889" relative="1" as="geometry">
            <mxPoint x="20" as="offset" />
          </mxGeometry>
        </mxCell>
        <mxCell id="b9P_MkYqucibZD2Cq7RL-24" value="auswahl == 1" style="rhombus;whiteSpace=wrap;html=1;" vertex="1" parent="1">
          <mxGeometry x="105" y="600" width="130" height="50" as="geometry" />
        </mxCell>
        <mxCell id="b9P_MkYqucibZD2Cq7RL-44" style="edgeStyle=orthogonalEdgeStyle;rounded=0;orthogonalLoop=1;jettySize=auto;html=1;" edge="1" parent="1" source="b9P_MkYqucibZD2Cq7RL-25" target="b9P_MkYqucibZD2Cq7RL-26">
          <mxGeometry relative="1" as="geometry" />
        </mxCell>
        <mxCell id="b9P_MkYqucibZD2Cq7RL-25" value="start &amp;lt; i" style="rhombus;whiteSpace=wrap;html=1;" vertex="1" parent="1">
          <mxGeometry x="105" y="670" width="130" height="50" as="geometry" />
        </mxCell>
        <mxCell id="b9P_MkYqucibZD2Cq7RL-45" style="edgeStyle=orthogonalEdgeStyle;rounded=0;orthogonalLoop=1;jettySize=auto;html=1;" edge="1" parent="1" source="b9P_MkYqucibZD2Cq7RL-26" target="b9P_MkYqucibZD2Cq7RL-27">
          <mxGeometry relative="1" as="geometry" />
        </mxCell>
        <mxCell id="b9P_MkYqucibZD2Cq7RL-26" value="ausgabe(zeichen)" style="shape=parallelogram;perimeter=parallelogramPerimeter;whiteSpace=wrap;html=1;fixedSize=1;" vertex="1" parent="1">
          <mxGeometry x="110" y="740" width="120" height="30" as="geometry" />
        </mxCell>
        <mxCell id="b9P_MkYqucibZD2Cq7RL-46" style="edgeStyle=orthogonalEdgeStyle;rounded=0;orthogonalLoop=1;jettySize=auto;html=1;" edge="1" parent="1" source="b9P_MkYqucibZD2Cq7RL-27" target="b9P_MkYqucibZD2Cq7RL-28">
          <mxGeometry relative="1" as="geometry" />
        </mxCell>
        <mxCell id="b9P_MkYqucibZD2Cq7RL-27" value="start ++" style="rounded=0;whiteSpace=wrap;html=1;" vertex="1" parent="1">
          <mxGeometry x="110" y="790" width="120" height="30" as="geometry" />
        </mxCell>
        <mxCell id="b9P_MkYqucibZD2Cq7RL-47" style="edgeStyle=orthogonalEdgeStyle;rounded=0;orthogonalLoop=1;jettySize=auto;html=1;" edge="1" parent="1" source="b9P_MkYqucibZD2Cq7RL-28" target="b9P_MkYqucibZD2Cq7RL-29">
          <mxGeometry relative="1" as="geometry" />
        </mxCell>
        <mxCell id="b9P_MkYqucibZD2Cq7RL-53" value="wahr" style="edgeLabel;html=1;align=center;verticalAlign=middle;resizable=0;points=[];" vertex="1" connectable="0" parent="b9P_MkYqucibZD2Cq7RL-47">
          <mxGeometry x="0.5667" relative="1" as="geometry">
            <mxPoint x="30" as="offset" />
          </mxGeometry>
        </mxCell>
        <mxCell id="b9P_MkYqucibZD2Cq7RL-28" value="auswahl == 2" style="rhombus;whiteSpace=wrap;html=1;" vertex="1" parent="1">
          <mxGeometry x="105" y="840" width="130" height="50" as="geometry" />
        </mxCell>
        <mxCell id="b9P_MkYqucibZD2Cq7RL-48" style="edgeStyle=orthogonalEdgeStyle;rounded=0;orthogonalLoop=1;jettySize=auto;html=1;" edge="1" parent="1" source="b9P_MkYqucibZD2Cq7RL-29" target="b9P_MkYqucibZD2Cq7RL-30">
          <mxGeometry relative="1" as="geometry" />
        </mxCell>
        <mxCell id="b9P_MkYqucibZD2Cq7RL-29" value="start &amp;lt; i" style="rhombus;whiteSpace=wrap;html=1;" vertex="1" parent="1">
          <mxGeometry x="105" y="910" width="130" height="50" as="geometry" />
        </mxCell>
        <mxCell id="b9P_MkYqucibZD2Cq7RL-49" style="edgeStyle=orthogonalEdgeStyle;rounded=0;orthogonalLoop=1;jettySize=auto;html=1;" edge="1" parent="1" source="b9P_MkYqucibZD2Cq7RL-30" target="b9P_MkYqucibZD2Cq7RL-31">
          <mxGeometry relative="1" as="geometry" />
        </mxCell>
        <mxCell id="b9P_MkYqucibZD2Cq7RL-30" value="ausgabe(\nzeichen)" style="shape=parallelogram;perimeter=parallelogramPerimeter;whiteSpace=wrap;html=1;fixedSize=1;" vertex="1" parent="1">
          <mxGeometry x="110" y="980" width="120" height="30" as="geometry" />
        </mxCell>
        <mxCell id="b9P_MkYqucibZD2Cq7RL-50" style="edgeStyle=orthogonalEdgeStyle;rounded=0;orthogonalLoop=1;jettySize=auto;html=1;" edge="1" parent="1" source="b9P_MkYqucibZD2Cq7RL-31" target="b9P_MkYqucibZD2Cq7RL-4">
          <mxGeometry relative="1" as="geometry" />
        </mxCell>
        <mxCell id="b9P_MkYqucibZD2Cq7RL-31" value="start ++" style="rounded=0;whiteSpace=wrap;html=1;" vertex="1" parent="1">
          <mxGeometry x="110" y="1030" width="120" height="30" as="geometry" />
        </mxCell>
      </root>
    </mxGraphModel>
  </diagram>
</mxfile>
